<?xml version="1.0" encoding="UTF-8"?>
<svg width="36px" height="36px" viewBox="0 0 36 36" version="1.1" xmlns="http://www.w3.org/2000/svg" xmlns:xlink="http://www.w3.org/1999/xlink">
    <title>m_icon</title>
    <g id="Page-1" stroke="none" stroke-width="1" fill="none" fill-rule="evenodd">
        <g id="m_icon" fill-rule="nonzero">
            <path d="M18,36 C8.0588745,36 0,27.9411255 0,18 C0,8.0588745 8.0588745,0 18,0 C27.9411255,0 36,8.0588745 36,18 C36,27.9411255 27.9411255,36 18,36 Z" id="Oval-Copy-path" fill="#333333"></path>
            <path d="M11.9571981,12 C12.2701973,12 12.5623616,12.1217698 12.8193397,12.375967 L18.2412473,19.1656 L23.6397954,12.3766887 L23.6749123,12.3376321 C23.8927829,12.1230378 24.1879895,12 24.5005024,12 L27.9623961,12 L27.9623961,14.3497971 L26.1755807,14.3495333 L26.1755807,22.6478667 L27.9623961,22.6481932 L27.9623961,25 L22.0444444,25 L22.0444444,22.6481932 L23.824314,22.6478667 L23.787914,16.0005333 L19.2280953,21.7035468 L19.0911864,21.8678466 C18.8618748,22.0923474 18.5560772,22.2226473 18.2293527,22.2226473 C17.9032907,22.2226473 17.5954845,22.0920134 17.3292031,21.8262806 L17.2319523,21.7027219 L12.6295807,15.9996667 L12.6295807,22.6478667 L14.4142609,22.6481932 L14.4142609,25 L8.49731401,25 L8.49731401,22.6481932 L10.2800473,22.6478667 L10.2800473,14.3495333 L8.49731401,14.3497971 L8.49731401,12 L11.9571981,12 Z" id="Path" fill="#FFFFFF"></path>
        </g>
    </g>
</svg>