<?xml version="1.0" encoding="UTF-8" standalone="no"?>
<svg width="36px" height="36px" viewBox="0 0 36 36" version="1.1" xmlns="http://www.w3.org/2000/svg" xmlns:xlink="http://www.w3.org/1999/xlink">
    <!-- Generator: Sketch 45.2 (43514) - http://www.bohemiancoding.com/sketch -->
    <title>Oval Copy</title>
    <desc>Created with Sketch.</desc>
    <defs></defs>
    <g id="Page-1" stroke="none" stroke-width="1" fill="none" fill-rule="evenodd">
        <path d="M18,36 C8.0588745,36 0,27.9411255 0,18 C0,8.0588745 8.0588745,0 18,0 C27.9411255,0 36,8.0588745 36,18 C36,27.9411255 27.9411255,36 18,36 Z M23.976,12.212 L18.267,19.393 L12.533,12.212 C12.398,12.081 12.216,12 12.012,12 L9,12 L9,13.476 L10.775,13.476 L10.775,22.597 L9,22.597 L9,24.075 L14.026,24.075 L14.026,22.597 L12.25,22.597 L12.25,14.328 L17.597,20.954 L17.697,21.081 C17.84,21.221 18.037,21.311 18.254,21.311 C18.472,21.311 18.667,21.221 18.81,21.081 L18.913,20.954 L24.211,14.328 L24.256,22.597 L22.482,22.597 L22.482,24.075 L27.509,24.075 L27.509,22.597 L25.731,22.597 L25.731,13.476 L27.509,13.476 L27.509,12 L24.495,12 C24.293,12 24.109,12.081 23.976,12.212 Z" id="Oval-Copy" fill="#fff"></path>
    </g>
</svg>