<?xml version="1.0" encoding="UTF-8" standalone="no"?>
<svg width="238px" height="14px" viewBox="0 0 238 14" version="1.1" xmlns="http://www.w3.org/2000/svg" xmlns:xlink="http://www.w3.org/1999/xlink">
    <!-- Generator: Sketch 45.2 (43514) - http://www.bohemiancoding.com/sketch -->
    <title>mik.ai</title>
    <desc>Created with Sketch.</desc>
    <defs></defs>
    <g id="Page-1" stroke="none" stroke-width="1" fill="none" fill-rule="evenodd">
        <g id="mik.ai" fill="#fff">
            <path d="M70.223,3.91 L70.223,1.434 C70.223,1.002 69.875,0.655 69.444,0.655 L58.301,0.655 L58.301,2.124 L60.08,2.124 L60.08,12.253 L58.303,12.253 L58.303,13.73 L69.444,13.73 C69.875,13.73 70.223,13.378 70.223,12.948 L70.223,10.468 L68.749,10.468 L68.749,12.253 L61.556,12.253 L61.556,7.511 L67.275,7.511 L67.275,6.035 L61.556,6.035 L61.556,2.124 L68.749,2.124 L68.749,3.91 L70.223,3.91" id="Fill-1"></path>
            <path d="M55.911,12.252 L50.845,1.343 C50.631,0.936 50.206,0.655 49.717,0.655 C49.223,0.655 48.798,0.938 48.585,1.348 L43.523,12.252 L41.757,12.252 L41.757,13.73 L46.785,13.73 L46.785,12.252 L45.183,12.252 L46.222,9.966 L53.212,9.966 L54.249,12.252 L52.65,12.252 L52.65,13.73 L57.676,13.73 L57.676,12.252 L55.911,12.252 Z M52.539,8.485 L46.895,8.485 L49.716,2.283 L49.717,2.283 L52.539,8.485 L52.539,8.485 Z" id="Fill-2"></path>
            <path d="M98.328,12.252 L93.263,1.343 C93.049,0.936 92.628,0.655 92.134,0.655 C91.64,0.655 91.216,0.938 91.005,1.348 L85.941,12.252 L84.177,12.252 L84.177,13.73 L89.203,13.73 L89.203,12.252 L87.604,12.252 L88.64,9.966 L95.628,9.966 L96.668,12.252 L95.065,12.252 L95.065,13.73 L100.096,13.73 L100.096,12.252 L98.328,12.252 Z M94.957,8.485 L89.313,8.485 L92.134,2.283 L92.135,2.283 L94.957,8.485 L94.957,8.485 Z" id="Fill-3"></path>
            <path d="M81.817,10.415 L81.817,12.252 L75.314,12.252 L75.314,2.131 L77.09,2.131 L77.09,0.655 L72.065,0.655 L72.065,2.131 L73.839,2.131 L73.839,12.252 L72.074,12.252 L72.074,13.73 L82.511,13.73 C82.943,13.73 83.291,13.378 83.291,12.948 L83.291,10.415 L81.817,10.415" id="Fill-4"></path>
            <polyline id="Fill-5" points="22.298 2.131 20.522 2.131 20.522 0.655 25.548 0.655 25.548 2.131 23.773 2.131 23.773 12.252 25.548 12.252 25.548 13.73 20.522 13.73 20.522 12.252 22.298 12.252 22.298 2.131"></polyline>
            <polyline id="Fill-6" points="39.598 12.252 34.647 6.434 39.193 2.131 40.771 2.131 40.771 0.655 35.745 0.655 35.745 2.131 37.044 2.131 30.763 8.078 30.763 2.131 32.504 2.131 32.504 0.655 27.48 0.655 27.48 2.131 29.287 2.131 29.287 12.252 27.48 12.252 27.48 13.73 32.504 13.73 32.504 12.252 30.763 12.252 30.763 10.113 33.573 7.451 37.657 12.252 36.105 12.252 36.105 13.73 41.133 13.73 41.133 12.252 39.598 12.252"></polyline>
            <path d="M15.495,0.655 C15.293,0.655 15.109,0.736 14.976,0.867 L9.267,8.048 L9.24,8.048 L3.533,0.867 C3.398,0.736 3.216,0.655 3.012,0.655 L0,0.655 L0,2.131 L1.775,2.131 L1.775,12.252 L0,12.252 L0,13.73 L5.026,13.73 L5.026,12.252 L3.25,12.252 L3.25,2.983 L3.296,2.983 L8.597,9.609 L8.697,9.736 C8.84,9.876 9.037,9.966 9.254,9.966 C9.472,9.966 9.667,9.876 9.81,9.736 L9.913,9.609 L15.211,2.983 L15.256,2.983 L15.256,12.252 L13.482,12.252 L13.482,13.73 L18.509,13.73 L18.509,12.252 L16.731,12.252 L16.731,2.131 L18.509,2.131 L18.509,0.655 L15.495,0.655" id="Fill-7"></path>
            <path d="M237.115,3.908 L237.115,1.431 C237.115,0.998 236.767,0.648 236.336,0.648 L225.192,0.648 L225.192,2.119 L226.971,2.119 L226.971,12.245 L225.194,12.245 L225.194,13.723 L236.336,13.723 C236.767,13.723 237.115,13.373 237.115,12.94 L237.115,10.461 L235.64,10.461 L235.64,12.245 L228.446,12.245 L228.446,7.507 L234.165,7.507 L234.165,6.028 L228.446,6.028 L228.446,2.119 L235.64,2.119 L235.64,3.908 L237.115,3.908" id="Fill-8"></path>
            <path d="M210.66,3.901 L210.66,1.426 C210.66,0.993 210.312,0.645 209.881,0.645 L198.738,0.645 L198.738,2.117 L200.517,2.117 L200.517,12.243 L198.74,12.243 L198.74,13.721 L209.881,13.721 C210.312,13.721 210.66,13.371 210.66,12.938 L210.66,10.458 L209.186,10.458 L209.186,12.243 L201.991,12.243 L201.991,7.504 L207.713,7.504 L207.713,6.026 L201.991,6.026 L201.991,2.117 L209.186,2.117 L209.186,3.901 L210.66,3.901" id="Fill-9"></path>
            <path d="M163.999,3.901 L163.999,1.426 C163.999,0.993 163.65,0.645 163.219,0.645 L152.076,0.645 L152.076,2.117 L153.857,2.117 L153.857,12.243 L152.078,12.243 L152.078,13.721 L163.219,13.721 C163.65,13.721 163.999,13.371 163.999,12.938 L163.999,10.458 L162.524,10.458 L162.524,12.243 L155.328,12.243 L155.328,7.504 L161.051,7.504 L161.051,6.026 L155.328,6.026 L155.328,2.117 L162.524,2.117 L162.524,3.901 L163.999,3.901" id="Fill-10"></path>
            <path d="M145.395,0.643 L145.395,2.121 L146.994,2.121 L142.464,12.088 L142.463,12.088 L137.931,2.121 L139.53,2.121 L139.53,0.643 L134.502,0.643 L134.502,2.121 L136.269,2.121 L141.335,13.028 C141.548,13.438 141.97,13.721 142.463,13.721 C142.954,13.721 143.379,13.435 143.593,13.025 L148.656,2.121 L150.421,2.121 L150.421,0.643 L145.395,0.643" id="Fill-11"></path>
            <path d="M135.249,12.243 L130.184,1.337 C129.97,0.927 129.548,0.646 129.055,0.646 C128.562,0.646 128.137,0.929 127.926,1.341 L122.859,12.243 L121.094,12.243 L121.094,13.721 L126.123,13.721 L126.123,12.243 L124.523,12.243 L125.562,9.959 L132.55,9.959 L133.588,12.243 L131.989,12.243 L131.989,13.721 L137.015,13.721 L137.015,12.243 L135.249,12.243 Z M131.878,8.479 L126.233,8.479 L129.055,2.274 L129.055,2.276 L129.056,2.274 L131.878,8.479 L131.878,8.479 Z" id="Fill-12"></path>
            <path d="M177.941,12.243 L177.941,10.726 C177.941,9.225 177.509,8.055 176.201,7.408 C175.955,7.286 175.681,7.182 175.37,7.097 L175.37,7.056 C175.401,7.053 175.428,7.044 175.458,7.042 C175.628,7.017 175.797,6.984 175.955,6.941 C176.102,6.901 176.246,6.855 176.381,6.802 C177.762,6.367 178.436,5.467 178.436,3.825 C178.436,3.625 178.418,3.422 178.374,3.227 C178.201,2.195 177.596,1.576 176.812,1.203 C175.713,0.683 174.259,0.646 173.132,0.646 L165.934,0.643 L165.934,2.124 L167.71,2.124 L167.71,12.243 L165.934,12.243 L165.934,13.721 L170.961,13.721 L170.961,12.243 L169.187,12.243 L169.187,7.7 L171.926,7.698 C174.454,7.698 176.458,8.168 176.458,10.903 L176.458,12.938 C176.458,13.369 176.806,13.721 177.238,13.721 L179.707,13.721 L179.707,12.243 L177.941,12.243 Z M169.187,6.222 L169.187,2.124 L173.522,2.119 C174.229,2.119 175.135,2.145 175.829,2.451 C175.842,2.458 175.855,2.46 175.868,2.465 C176.462,2.739 176.892,3.227 176.892,4.104 C176.892,4.41 176.838,4.673 176.741,4.896 C176.734,4.908 176.728,4.921 176.723,4.933 C176.153,6.178 174.243,6.224 172.992,6.224 L169.187,6.222 L169.187,6.222 Z" id="Fill-13"></path>
            <polyline id="Fill-14" points="122.438 3.901 120.961 3.901 120.961 2.124 116.149 2.124 116.149 12.243 117.924 12.243 117.924 13.721 112.897 13.721 112.897 12.243 114.674 12.243 114.674 2.124 109.861 2.124 109.861 3.901 108.385 3.901 108.385 0.645 122.438 0.645 122.438 3.901"></polyline>
            <path d="M218.244,6.374 C216.157,5.861 214.354,5.421 214.354,4.007 C214.354,2.439 215.386,1.675 217.504,1.675 C219.153,1.675 220.529,2.524 221.186,3.908 L222.674,3.908 L222.674,0.648 L221.196,0.648 L221.196,1.606 C220.181,0.814 218.861,0.369 217.484,0.369 C214.557,0.369 212.74,1.751 212.74,3.973 C212.74,6.531 215.451,7.15 217.841,7.693 C220.048,8.2 221.954,8.635 221.954,10.295 C221.954,11.95 220.23,12.694 218.525,12.694 C216.301,12.694 214.473,11.257 214.325,9.45 L212.83,9.45 L212.83,13.721 L214.315,13.721 L214.315,12.482 C215.346,13.456 216.814,14 218.444,14 C220.993,14 223.571,12.749 223.571,10.362 C223.571,7.68 220.74,6.984 218.244,6.374" id="Fill-15"></path>
            <path d="M191.738,0.646 L191.738,2.124 L193.516,2.124 L193.516,11.594 L193.488,11.594 L185.862,1.159 L185.624,0.86 C185.492,0.729 185.308,0.646 185.106,0.646 L181.682,0.646 L181.682,2.124 L183.46,2.124 L183.46,12.243 L181.681,12.243 L181.681,13.721 L186.708,13.721 L186.708,12.243 L184.932,12.243 L184.932,2.437 L184.975,2.437 L192.936,13.323 C193.152,13.565 193.463,13.721 193.812,13.721 C194.46,13.721 194.988,13.192 194.988,12.543 L194.988,2.124 L196.764,2.124 L196.764,0.646 L191.738,0.646" id="Fill-16"></path>
        </g>
    </g>
</svg>